# xmcd
#
# Track frame offsets:
# 150
# 16174
# 28242
# 42036
# 58780
# 75882
# 93868
# 110327
# 129667
# 146587
# 162835
# 177121
#
# Disc length: 2699 seconds
#
# Revision: 0
# Processed by: cddbd v1.5PL3 Copyright (c) Steve Scherf et al.
# Submitted via: Axialis_AX_CDPlayer 2.6
#
DISCID=8c0a890c
DTITLE=Shania Twain - Wild and Wicked
DYEAR=1900
DGENRE=
TTITLE0=For The Love Of Him
TTITLE1=Bite My Lip
TTITLE2=Wild and Wicked
TTITLE3=Send It With Love
TTITLE4=(Don't Give Me That) Once Over
TTITLE5=Hate To Love
TTITLE6=Luv Eyes
TTITLE7=I Lost My Heart When I Found You
TTITLE8=The Rhythm Made Me Do It
TTITLE9=Two Hearts One Love
TTITLE10=Half - Breed
TTITLE11=For The Love Of Him (Dance Mix)
EXTD=© ebe\nFriday, the 16th of May mmiii\n\nBought after "buying" the Band 
EXTD=of Brothers 3-disc dvd set for Matrix. \nHad already taken the list nam
EXTD=es for this cd, to check which songs I had \nin her Best of cd.
EXTT0=
EXTT1=
EXTT2=
EXTT3=
EXTT4=
EXTT5=
EXTT6=
EXTT7=
EXTT8=
EXTT9=
EXTT10=
EXTT11=
PLAYORDER=
